<?xml version="1.0" encoding="UTF-8" standalone="no"?>
<!DOCTYPE svg PUBLIC "-//W3C//DTD SVG 1.1//EN"
 "http://www.w3.org/Graphics/SVG/1.1/DTD/svg11.dtd">
<!-- Generated by graphviz version 8.0.5 (20230430.1635)
 -->
<!-- Title: snakemake_dag Pages: 1 -->
<svg width="91pt" height="188pt"
 viewBox="0.00 0.00 90.75 188.00" xmlns="http://www.w3.org/2000/svg" xmlns:xlink="http://www.w3.org/1999/xlink">
<g id="graph0" class="graph" transform="scale(1 1) rotate(0) translate(4 184)">
<title>snakemake_dag</title>
<polygon fill="white" stroke="none" points="-4,4 -4,-184 86.75,-184 86.75,4 -4,4"/>
<!-- 0 -->
<g id="node1" class="node">
<title>0</title>
<path fill="none" stroke="#56a9d8" stroke-width="2" d="M56.88,-36C56.88,-36 25.87,-36 25.87,-36 19.88,-36 13.88,-30 13.88,-24 13.88,-24 13.88,-12 13.88,-12 13.88,-6 19.88,0 25.88,0 25.88,0 56.88,0 56.88,0 62.88,0 68.88,-6 68.88,-12 68.88,-12 68.88,-24 68.88,-24 68.88,-30 62.88,-36 56.88,-36"/>
<text text-anchor="middle" x="41.38" y="-14.12" font-family="sans" font-size="10.00">clean_up</text>
</g>
<!-- 1 -->
<g id="node2" class="node">
<title>1</title>
<path fill="none" stroke="#d85656" stroke-width="2" d="M56.38,-108C56.38,-108 26.38,-108 26.38,-108 20.38,-108 14.38,-102 14.38,-96 14.38,-96 14.38,-84 14.38,-84 14.38,-78 20.38,-72 26.38,-72 26.38,-72 56.38,-72 56.38,-72 62.38,-72 68.38,-78 68.38,-84 68.38,-84 68.38,-96 68.38,-96 68.38,-102 62.38,-108 56.38,-108"/>
<text text-anchor="middle" x="41.38" y="-86.12" font-family="sans" font-size="10.00">mapfile</text>
</g>
<!-- 1&#45;&gt;0 -->
<g id="edge1" class="edge">
<title>1&#45;&gt;0</title>
<path fill="none" stroke="grey" stroke-width="2" d="M41.38,-71.34C41.38,-64.75 41.38,-57.08 41.38,-49.67"/>
<polygon fill="grey" stroke="grey" stroke-width="2" points="44.88,-49.9 41.38,-39.9 37.88,-49.9 44.88,-49.9"/>
</g>
<!-- 2 -->
<g id="node3" class="node">
<title>2</title>
<path fill="none" stroke="#afd856" stroke-width="2" d="M70.75,-180C70.75,-180 12,-180 12,-180 6,-180 0,-174 0,-168 0,-168 0,-156 0,-156 0,-150 6,-144 12,-144 12,-144 70.75,-144 70.75,-144 76.75,-144 82.75,-150 82.75,-156 82.75,-156 82.75,-168 82.75,-168 82.75,-174 76.75,-180 70.75,-180"/>
<text text-anchor="middle" x="41.38" y="-158.12" font-family="sans" font-size="10.00">data_extraction</text>
</g>
<!-- 2&#45;&gt;1 -->
<g id="edge2" class="edge">
<title>2&#45;&gt;1</title>
<path fill="none" stroke="grey" stroke-width="2" d="M41.38,-143.34C41.38,-136.75 41.38,-129.08 41.38,-121.67"/>
<polygon fill="grey" stroke="grey" stroke-width="2" points="44.88,-121.9 41.38,-111.9 37.88,-121.9 44.88,-121.9"/>
</g>
</g>
</svg>
